<?xml version="1.0" encoding="UTF-8"?>
<svg id="Layer_2" data-name="Layer 2" xmlns="http://www.w3.org/2000/svg" viewBox="0 0 1072.31 265.26">
  <defs>
    <style>
      .cls-1 {
        fill: #05733b;
      }
    </style>
  </defs>
  <g id="Layer_1-2" data-name="Layer 1">
    <g>
      <path class="cls-1" d="M454.1,182.03h110.45c-5.82-11.35-7.28-33.37-17.59-41.47-1.31-1.04-8.3-4.55-9.25-4.55h-37.58v-29.15h40.65c21.15,0,36.71,22.48,42.6,40.25,2.03,6.1,6.84,33.11,11.37,34.66,2.9.97,8.36-1.08,9.59,2.77,1.23,3.85-4.42,20.18.11,26.63h-81.32c6.25,36.14-28.37,67.96-62.45,47.87-6.08-3.58-18.86-18.95-18.86-25.64v-22.25h-69.04v-63.66c0-1.27,5.23-12.89,6.44-15.05,6.33-11.24,16.89-19.52,29.2-22.97,4.11-1.16,17.42-1.99,18.06-2.65.3-.32-.49-5.12,1.44-8.53,3.18-5.59,21.45-15.43,26.17-22.14v105.85l.04.04ZM424.94,136c-10.67-2.33-24.54,10.56-24.54,20.71v25.32h24.54v-46.03ZM493.98,211.16h-24.54c-5.89,33.3,30.44,33.26,24.54,0Z"/>
      <path class="cls-1" d="M343.65,77.35v133.81h-105.85v53.69h-79.77v-29.15h52.16v-105.86l27.61-21.47v73.63h78.25v-24.54h-53.69v-39.45c0-14.78,24.41-40.65,39.12-40.65h42.19l-.02-.02ZM316.04,128.32v-21.05c0-4.34-11.39-.34-13.32.51-13.8,5.93-13.36,7.67-12.77,20.55h26.08Z"/>
      <path class="cls-1" d="M29.15,235.72h76.7v-103.57l27.61-23.77v156.5H0V108.37l29.15,23.77v103.57Z"/>
      <path class="cls-1" d="M969.61,106.85v158.02h-81.32c-.78-9.63,2.58-20.18,0-29.15h53.69v-24.54h-53.69c-1.38-8,1.38-16.26,1.59-23.71.76-24.92-4.93-52.19,17.85-69.59,5.48-4.19,20.83-11.01,27.35-11.01h34.51l.02-.02ZM942,136c-9.12-2.29-24.54,8.72-24.54,17.64v28.39h24.54v-46.03Z"/>
      <path class="cls-1" d="M840.7,132.15l26.87-23.77c4.7-.4.74,1.67.74,2.29v154.19h-190.24v-29.15h162.61v-103.55h.02Z"/>
      <path class="cls-1" d="M655.07,182.03h23.01v-75.18h27.61l1.55,104.31h-52.16v53.71h-58.3v-29.15h29.15v-103.57l29.15-25.3v75.18Z"/>
      <path class="cls-1" d="M989.13,264.87v-29.15h52.16v-83.6c0-6.69-16.77-19.58-24.54-16.11v46.03h-27.61v-75.18h34.51c29.3,0,44.95,26.91,46.85,52.86,2.48,33.85-1.33,71.13-1.59,105.16h-79.79Z"/>
      <path class="cls-1" d="M817.69,211.16h-81.32v-63.66c0-2.77,5.95-16.7,7.92-19.69,9.34-14.04,27.76-21.45,44.25-20.96l.32-7.37,28.81-23.31v135.01l.02-.02ZM788.53,136c-10.59-2.86-24.54,9-24.54,19.18v26.85h24.54v-46.03Z"/>
      <path class="cls-1" d="M185.58,60.85h-27.52v150.31h27.52V60.85Z"/>
      <path class="cls-1" d="M418.83,235.72c.57,1.65-1.52,3.37-1.52,3.83v25.32h-154.95v-29.15h156.47Z"/>
      <path class="cls-1" d="M228.48,0c-.85,28.22-15.71,46.77-45.26,46.13-22.17-.49-64.3-26.95-63.64,13.72h-19.96c-1.71-28.96,17.3-49.82,46.79-47.53,20.66,1.59,60.61,26.34,62.14-12.32h19.94Z"/>
      <path class="cls-1" d="M342.12,29.86h-29.15v29.15h29.15v-29.15Z"/>
      <path class="cls-1" d="M81.32,105.85h-29.15v29.15h29.15v-29.15Z"/>
      <path class="cls-1" d="M687.31,88.71c-1.5-.51-3.32,1.52-3.83,1.52h-25.32v-29.15h29.15v27.63Z"/>
      <path class="cls-1" d="M300.69,29.86c.76.55-1.52,1.97-1.52,2.31v24.54c0,.47,1.95,1.19,1.52,2.31h-29.15v-29.15h29.15Z"/>
      <path class="cls-1" d="M727.2,88.71h-26.84c-.47,0-1.19,1.95-2.31,1.52v-29.15h29.15v27.63Z"/>
      <path class="cls-1" d="M570.71,235.72v29.15h-27.61v-26.85c0-.47-1.95-1.18-1.52-2.31h29.15-.02Z"/>
      <path class="cls-1" d="M836.2,15.11c-2.17-1.01-4.34-2.04-6.56-2.95-1.37-.56-2.8-.97-4.36-.91-.23,2.53-.46,5.03-.69,7.63h3.45c-.05,1.01-.48,1.67-1.31,2.21-2.34,1.52-4.63,3.13-6.91,4.75-1.92,1.36-3.73,2.87-5.15,4.84-1.78,2.48-1.41,4.64,1.13,6.18,2.06,1.25,4.36,1.68,6.68,2.05,1,.16,2,.26,2.98.39.03,1.16-.33,2.18-1.21,2.78-1.43.97-2.87,1.97-4.41,2.7-2.58,1.22-5.36,1.82-8.15,2.26-3.13.5-6.27.62-9.35-.4-2.94-.97-4.99-2.89-5.81-6.08-.76-2.95-.51-5.91.34-8.75.64-2.14,1.7-4.13,2.53-6.2.5-1.22.99-2.45,1.37-3.72.29-.95.27-1.95-.22-3.05-.58.91-1.13,1.67-1.59,2.51-2.84,5.3-4.59,11.02-5.7,16.97-.23,1.21-.38,2.43-.56,3.64v3.06c.59.95,1.15,1.9,1.76,2.83.64.97,1.2,2.04,1.99,2.86,2.17,2.26,4.96,3.11,7.91,3.45,3.62.42,7.16-.09,10.62-1.17,4.59-1.42,8.79-3.62,12.11-7.33,2.46-2.75,3.93-5.93,3.39-9.83-.09-.65-.17-1.48-.57-1.86-.64-.61-1.51-1.1-2.35-1.29-1.21-.27-2.48-.23-3.71-.33-.84-.07-1.68-.16-2.58-.24.35-1.12.91-1.95,1.71-2.49,1.76-1.19,3.58-2.3,5.41-3.38,2.51-1.48,5.07-2.89,7.59-4.36.22-.13.47-.45.48-.69.08-1.82.13-3.64.14-5.46,0-.22-.2-.55-.39-.64Z"/>
      <path class="cls-1" d="M1066.3,32.97c-1.08,1.08-1.59,1.84-1.67,3.2-.07,1.16.09,2.36.26,3.53.24,1.69-.48,2.87-2.05,3.21-1.2.26-2.34-.01-3.44-.46-1.86-.75-3.45-2.46-2.69-4.81.25-.77.08-1.61-.55-2.31-.76,1.16-1.51,2.28-2.23,3.43-2.17,3.43-5.48,4.39-9.12,4.73-.26-.9-.47-1.76-.76-2.59-1.22-3.51-3.3-6.14-6.86-7.17-2.44-.71-4.89-.48-7.32.05-3.24.71-6.28,1.98-9.24,3.51-1.74.91-3.44,1.9-5.24,2.9-.04-.7-.11-1.36-.11-2.02-.07-4.33-.12-8.65-.21-12.98-.04-1.89.14-3.72.68-5.54.42-1.4.6-2.88.86-4.33.03-.17-.06-.46-.19-.57-1.36-1.16-2.74-2.3-4.22-3.52-.49.59-1.14,1.26-1.69,2.02-.93,1.3-1.09,2.76-.58,4.29.25.75.59,1.46.8,2.21.38,1.32.88,2.64,1,3.99.47,5.02.72,10.06,1.22,15.07.15,1.52-.35,2.4-1.35,3.25-2.05,1.76-3.2,1.9-5.5.56-.24-.14-.49-.29-.74-.43-1.65-.98-1.63-.98-1.3-2.93.18-1.06.32-2.12.49-3.23-1.54.38-2.75,1.02-3.54,2.46-.63,1.15-1.64,1.95-2.82,2.48-3.49,1.56-7.19,2.04-10.92,2.35-3.38.28-6.76.23-10.14-.13-3.47-.37-6.88-1.03-10.13-2.4-3.57-1.5-6.5-3.74-7.84-7.77-.2-.59-.62-1.1-.93-1.65-.26-.47-.64-.56-1.14-.47-4.09.71-7.4,2.78-9.87,6.27-1.42,2.02-2.02,4.27-1.2,6.78.05.16.05.41-.03.55-.8,1.19-1.32,2.75-3.09,2.7-.09,0-.18.05-.27.08-3.3,1.02-6.44,2.46-9.51,4.05-.77.4-1.51.87-2.26,1.3.09.35.16.61.24.89.54-.11,1.06-.16,1.55-.3,3.61-1.03,7.28-1.7,10.98-2.22,2.53-.35,4.82-1.3,6.5-3.46.24-.31.45-.34.78-.2.99.45,2.01.83,2.98,1.31,1.58.77,3.22,1.24,4.96,1.18.26,0,.62-.2.77-.43.56-.85,1.09-1.74,1.56-2.65.29-.56.55-.67,1.14-.42,4.26,1.83,8.68,3.03,13.27,3.46,4.42.41,8.82.12,13.23-.45,3.34-.43,6.54-1.26,9.57-2.84.58-.3,1.22-.47,1.66-.63.95.93,1.72,1.87,2.66,2.58,2.32,1.75,5.03,2.48,7.81,2.66,3.37.23,6.76.24,10.14.19,3.1-.05,6.2-.31,9.3-.45,4.23-.19,8.45-.49,12.61-1.36,3.32-.69,6.5-1.76,9.28-3.88.47-.35.9-.75,1.36-1.14.09.13.16.2.2.28,2.09,3.78,5.94,5.37,10.05,4.45,2.25-.51,4.09-1.56,4.84-4.08.91-3.08,1.03-6.17.09-9.25-.36-1.19-.94-2.26-2.08-2.93M955.78,40.84c-1.05-.55-2.1-1.08-3.13-1.62.55-1.45,1.19-1.91,2.63-1.84.17,0,.4.21.49.38.38.71.36,1.46,0,3.09ZM1017.76,44.04c.08-.76.27-1.31,1.05-1.67,2.76-1.26,5.55-2.38,8.55-2.85,2.38-.37,4.73-.43,6.97.67,1.57.77,2.59,2.04,3.11,3.85h-19.69Z"/>
      <path class="cls-1" d="M925.69,33.88c-.07-.02-.14-.03-.22-.05-.3.75-.65,1.5-.9,2.28-.33,1.05-.55,2.13-.87,3.18-.26.86-.8,1.4-1.74,1.44-.91.05-1.82.21-2.73.26-.2.01-.53-.14-.59-.3-.37-1.03-.75-2.06-1.01-3.12-.2-.83-.23-1.71-.36-2.74-.32.6-.54,1.07-.8,1.5-.63,1.07-1.17,2.22-1.95,3.15-1.75,2.08-4.02,2.1-6.41,1.5-1.95-.49-3.25-1.63-3.91-3.62-.17-.52-.48-1-.72-1.5l-.23-.03c-.55,1.1-1.12,2.2-1.62,3.32-.65,1.46-1.69,2.49-3.18,2.75-2.12.37-4.27.71-6.41.78-6.13.19-12.26.24-18.34-.77-3.97-.66-6.81-2.75-7.7-7.06-.55-2.66-.99-5.35-1.37-8.03-.55-3.91-1.04-7.83-1.49-11.75-.36-3.2-.62-6.4-.93-9.6-.07-.74-.11-1.48-.17-2.36-1.64,1.96-2.48,4.14-2.6,6.54-.12,2.52-.03,5.05.02,7.59.09,4.92.23,9.83.32,14.75.03,1.77-.5,3.39-1.45,4.84-1.74,2.68-4.04,4.7-6.74,6.23-2.29,1.3-4.63,2.48-6.91,3.8-1.12.66-2.14,1.5-3.21,2.26.03.07.07.14.1.21.09.02.17.05.26.06,2.4.1,4.79.07,7.15-.44,2.85-.62,5.36-1.88,7.37-4.15,2.62-2.98,4.12-6.53,4.84-10.46.16-.91.7-1.44,1.33-2.06.05.19.1.3.11.41.14,1.74.32,3.47.43,5.21.19,3.1,1.47,5.59,3.77,7.52,2.95,2.49,6.44,3.39,10.13,3.71,3.62.31,7.22.02,10.82-.45,2.56-.34,5.13-.63,7.56-1.62,1.85-.76,3.65-1.64,5.48-2.49.38-.18.68-.15,1.04.1.72.5,1.47.97,2.23,1.39,3.5,1.91,6.94,2,10.31-.38.23-.17.66-.17.95-.07,1.26.39,2.47.94,3.74,1.24,3.43.83,5.67-.64,6.51-4.22.55-2.35.42-4.73.26-7.11-.03-.55-.11-1.09-.17-1.64"/>
      <path class="cls-1" d="M846.46,21.84c.05-1.45-.32-2.97.7-4.37.61.32,1.21.59,1.76.94,2.32,1.49,3.77,3.71,4.93,6.17,1.36,2.86,1.9,5.98,2.74,8.99.32,1.16.59,2.34.91,3.68.12-.32.18-.45.23-.59,1.21-3.82.94-7.64-.1-11.41-1.83-6.64-5.54-11.91-11.36-15.59-1.69-1.07-3.5-1.89-5.45-2.48-.1,3.03-.37,5.96.12,8.91.44,2.6,3.06,5.41,5.51,5.75"/>
      <path class="cls-1" d="M933.48,45.32c.13.02.25.04.37.06.37-.51.8-1,1.12-1.54,1.72-2.87,2.21-5.97,2.36-9.13.21-4.25-.22-8.47-.63-12.69-.42-4.44-.72-8.88-1.03-13.32-.04-.54-.22-.8-1.12-.69-.42,1.16-1.22,2.35-1.22,3.55-.03,9.69.09,19.39.16,29.08,0,1.56,0,3.12,0,4.68"/>
      <path class="cls-1" d="M998.18,52.7c-1.38.98-2.77,1.98-4.18,2.99-1.27-.89-2.46-1.73-3.87-2.72-1.32,1.38-2.61,2.71-3.88,4.06-.1.1-.13.35-.06.46,1.03,1.51,2.2,2.9,4.29,3.31.27.05.7-.03.89-.2,1.04-.94,2.02-1.92,3.2-3.07.69.71,1.15,1.24,1.68,1.7.49.43,1.05.81,1.62,1.16.15.1.49.08.67,0,1.68-.76,2.97-1.89,3.79-3.4.1-.18.1-.48,0-.65-1.04-1.5-2.3-2.8-4.15-3.65"/>
      <path class="cls-1" d="M1068.37,17.74c-.99.91-1.91,1.75-2.83,2.58-1.01.91-1.1.91-2.19.05-.27-.21-.52-.43-.79-.65-.43-.36-.87-.71-1.33-1.09-1.44,1.34-2.83,2.63-4.36,4.06,1.45,1.35,2.85,2.66,4.26,3.98,1.38-1.23,2.61-2.33,3.99-3.56.75.8,1.48,1.57,2.18,2.35.27.3.53.39.89.18,1.38-.85,2.76-1.69,4.12-2.53-.62-2.41-2.08-4.03-3.94-5.38"/>
      <path class="cls-1" d="M895.92,24.66c0,.08,0,.16.01.23.59.06,1.2.23,1.76.15,3.27-.54,6.17-2.01,8.92-3.78.98-.63,1.46-1.63,1.5-2.81,0-.16-.09-.44-.22-.49-2.37-1.07-4.8-1.45-7.27-.39-1.08.47-1.88,1.27-2.36,2.55h5.18c-2.17,2.35-5.14,2.95-7.52,4.55"/>
      <path class="cls-1" d="M1027.87,25.13c.49-.55.87-1.21,1.27-1.85.09-.14.12-.45.04-.58-1.13-1.82-2.55-3.27-4.51-4.14-1.16,1.64-2.33,3.28-3.57,5.04,1.58,1.38,3,2.63,4.44,3.9.85-.86,1.63-1.57,2.34-2.37"/>
      <path class="cls-1" d="M1052.48,23.95c.5-.73.42-1.41-.24-2.05-.36-.35-.76-.68-1.13-1.03-.81-.79-1.87-1.24-3.07-1.48-.21-.04-.51,0-.68.09-1.98,1.15-3.29,2.75-4.32,4.58,1.77,1.16,3.53,2.31,5.26,3.44,1.53-.78,3.32-2.31,4.18-3.55"/>
      <path class="cls-1" d="M984.3,24.21c-1.29.73-2.56,1.5-3.84,2.25.04.07.09.15.13.23,3.39-.15,7.85-1.97,10.37-4.21.65-.58.88-1.29.87-2.13,0-.37-.13-.49-.49-.57-2.18-.47-4.39-.44-6.6-.34-1.35.06-1.87.64-2.07,1.93,1.53.24,3.15-.14,4.84.66-.53.49-.88.93-1.33,1.22-.59.38-1.27.62-1.88.96"/>
      <path class="cls-1" d="M940.64,55.95c4.58-.17,8.88-.95,13-2.19-.03-.08-.07-.16-.11-.25-4.63.02-8.84,1.04-12.9,2.44"/>
    </g>
  </g>
</svg>